<?xml version="1.0" encoding="utf-8" standalone="no"?>
<!DOCTYPE svg PUBLIC "-//W3C//DTD SVG 1.1//EN"
  "http://www.w3.org/Graphics/SVG/1.1/DTD/svg11.dtd">
<svg xmlns:xlink="http://www.w3.org/1999/xlink" width="112.32pt" height="37.962pt" viewBox="0 0 112.32 37.962" xmlns="http://www.w3.org/2000/svg" version="1.1">
 <metadata>
  <rdf:RDF xmlns:dc="http://purl.org/dc/elements/1.1/" xmlns:cc="http://creativecommons.org/ns#" xmlns:rdf="http://www.w3.org/1999/02/22-rdf-syntax-ns#">
   <cc:Work>
    <dc:type rdf:resource="http://purl.org/dc/dcmitype/StillImage"/>
    <dc:date>2024-12-07T16:53:03.291647</dc:date>
    <dc:format>image/svg+xml</dc:format>
    <dc:creator>
     <cc:Agent>
      <dc:title>Matplotlib v3.5.3, https://matplotlib.org/</dc:title>
     </cc:Agent>
    </dc:creator>
   </cc:Work>
  </rdf:RDF>
 </metadata>
 <defs>
  <style type="text/css">*{stroke-linejoin: round; stroke-linecap: butt}</style>
 </defs>
 <g id="figure_1">
  <g id="patch_1">
   <path d="M 0 37.962 
L 112.32 37.962 
L 112.32 0 
L 0 0 
L 0 37.962 
z
" style="fill: none"/>
  </g>
  <g id="axes_1">
   <g id="line2d_1">
    <path d="M 10.26 24.03 
L 40.86 24.03 
M 48.204 20.97 
L 65.34 10.26 
M 71.46 24.03 
L 102.06 24.03 
" clip-path="url(#pe8a3aa818e)" style="fill: none; stroke: #000000; stroke-width: 2; stroke-linecap: round"/>
   </g>
   <g id="patch_2">
    <path d="M 44.532 27.702 
C 45.505826 27.702 46.439897 27.315095 47.128496 26.626496 
C 47.817095 25.937897 48.204 25.003826 48.204 24.03 
C 48.204 23.056174 47.817095 22.122103 47.128496 21.433504 
C 46.439897 20.744905 45.505826 20.358 44.532 20.358 
C 43.558174 20.358 42.624103 20.744905 41.935504 21.433504 
C 41.246905 22.122103 40.86 23.056174 40.86 24.03 
C 40.86 25.003826 41.246905 25.937897 41.935504 26.626496 
C 42.624103 27.315095 43.558174 27.702 44.532 27.702 
z
" clip-path="url(#pe8a3aa818e)" style="fill: #ffffff; stroke: #000000; stroke-width: 2; stroke-linejoin: miter"/>
   </g>
   <g id="patch_3">
    <path d="M 67.788 27.702 
C 68.761826 27.702 69.695897 27.315095 70.384496 26.626496 
C 71.073095 25.937897 71.46 25.003826 71.46 24.03 
C 71.46 23.056174 71.073095 22.122103 70.384496 21.433504 
C 69.695897 20.744905 68.761826 20.358 67.788 20.358 
C 66.814174 20.358 65.880103 20.744905 65.191504 21.433504 
C 64.502905 22.122103 64.116 23.056174 64.116 24.03 
C 64.116 25.003826 64.502905 25.937897 65.191504 26.626496 
C 65.880103 27.315095 66.814174 27.702 67.788 27.702 
z
" clip-path="url(#pe8a3aa818e)" style="fill: #ffffff; stroke: #000000; stroke-width: 2; stroke-linejoin: miter"/>
   </g>
  </g>
 </g>
 <defs>
  <clipPath id="pe8a3aa818e">
   <rect x="7.2" y="7.2" width="97.92" height="23.562"/>
  </clipPath>
 </defs>
</svg>
