<?xml version="1.0" encoding="utf-8" standalone="no"?>
<!DOCTYPE svg PUBLIC "-//W3C//DTD SVG 1.1//EN"
  "http://www.w3.org/Graphics/SVG/1.1/DTD/svg11.dtd">
<svg xmlns:xlink="http://www.w3.org/1999/xlink" width="65.4pt" height="65.4pt" viewBox="0 0 65.4 65.4" xmlns="http://www.w3.org/2000/svg" version="1.1">
 <metadata>
  <rdf:RDF xmlns:dc="http://purl.org/dc/elements/1.1/" xmlns:cc="http://creativecommons.org/ns#" xmlns:rdf="http://www.w3.org/1999/02/22-rdf-syntax-ns#">
   <cc:Work>
    <dc:type rdf:resource="http://purl.org/dc/dcmitype/StillImage"/>
    <dc:date>2024-12-06T15:30:52.918380</dc:date>
    <dc:format>image/svg+xml</dc:format>
    <dc:creator>
     <cc:Agent>
      <dc:title>Matplotlib v3.5.3, https://matplotlib.org/</dc:title>
     </cc:Agent>
    </dc:creator>
   </cc:Work>
  </rdf:RDF>
 </metadata>
 <defs>
  <style type="text/css">*{stroke-linejoin: round; stroke-linecap: butt}</style>
 </defs>
 <g id="figure_1">
  <g id="patch_1">
   <path d="M 0 65.4 
L 65.4 65.4 
L 65.4 -0 
L 0 -0 
L 0 65.4 
z
" style="fill: none"/>
  </g>
  <g id="axes_1">
   <g id="patch_2">
    <path d="M 32.7 55.14 
C 38.651158 55.14 44.359372 52.77558 48.567476 48.567476 
C 52.77558 44.359372 55.14 38.651158 55.14 32.7 
C 55.14 26.748842 52.77558 21.040628 48.567476 16.832524 
C 44.359372 12.62442 38.651158 10.26 32.7 10.26 
C 26.748842 10.26 21.040628 12.62442 16.832524 16.832524 
C 12.62442 21.040628 10.26 26.748842 10.26 32.7 
C 10.26 38.651158 12.62442 44.359372 16.832524 48.567476 
C 21.040628 52.77558 26.748842 55.14 32.7 55.14 
L 32.7 55.14 
z
" clip-path="url(#p3b5a447b16)" style="fill: none; stroke: #000000; stroke-width: 2; stroke-linejoin: miter"/>
   </g>
   <g id="line2d_1">
    <path d="M 40.35 53.1 
L 40.35 40.35 
L 25.05 40.35 
L 25.05 44.43 
L 25.05 20.97 
L 25.05 25.05 
L 40.35 25.05 
L 40.35 12.3 
" clip-path="url(#p3b5a447b16)" style="fill: none; stroke: #000000; stroke-width: 2; stroke-linecap: round"/>
   </g>
   <g id="line2d_2">
    <path d="M 25.05 25.05 
L 12.3 25.05 
" clip-path="url(#p3b5a447b16)" style="fill: none; stroke: #000000; stroke-width: 2; stroke-linecap: round"/>
   </g>
  </g>
 </g>
 <defs>
  <clipPath id="p3b5a447b16">
   <rect x="7.2" y="7.2" width="51" height="51"/>
  </clipPath>
 </defs>
</svg>
